<svg xmlns="http://www.w3.org/2000/svg" height="200" width="400" version="1.0" viewBox="-106.29915 -95.31525 921.2593 571.8915"><path d="M.426 327.635h17.893l12.333 34.966h.17l12.409-34.966H61.06v53.626H49.238v-41.133h-.182l-14.07 41.133h-9.02l-13.548-41.133h-.182v41.133H.425v-53.626m150.324 32.261h-13.1l6.518-16.647zm-34.316 21.365h13.025l4.474-11.343h20.843l4.633 11.343h13.345l-23.357-53.626h-9.777l-23.186 53.626m125.017-43.625h7.743c4.324 0 9.16.83 9.16 6.22 0 5.826-5.603 5.954-9.938 5.954h-6.965zm-11.812 43.625h11.812v-21.472h5.858l11.225 21.472h14.144l-13.654-22.633c7.594-1.395 11.578-7.178 11.578-14.75 0-12.483-9.213-16.243-20.173-16.243h-20.79v53.626m95.334-53.626h13.484l13.25 35.147h.159l13.483-35.147h12.675l-22.143 53.626h-9.48l-21.428-53.626m106.091 0h36.404v10.917h-24.635v10h23.282v10.907h-23.282v10.874h26.009v10.928h-37.778v-53.626m99.243 0h11.843v42.698h21.855v10.928h-33.698v-53.626m92.202 0h11.812v42.698h21.93v10.928h-33.742v-53.626m68.164-5.975c10.001 0 17.99 8.18 17.99 18.16 0 10.235-7.989 18.308-18.096 18.308-10.022 0-18.202-8.073-18.202-18.309 0-9.98 8.18-18.159 18.202-18.159zm-.191 3.643c-7.605 0-13.75 6.55-13.75 14.623 0 8.19 6.145 14.56 13.835 14.56 7.658.084 13.9-6.37 13.9-14.56 0-8.073-6.242-14.623-13.9-14.623zm-3.078 25.124H683.1v-20.193c1.64-.256 3.408-.565 6.486-.565 3.483 0 5.581.565 6.934 1.597 1.14.895 1.81 2.29 1.81 4.389 0 2.439-1.704 4.1-3.887 4.686v.181c1.768.32 2.907 1.896 3.216 4.91.416 3.12.831 4.378 1.15 4.995h-4.473c-.436-.724-.788-2.492-1.171-5.218-.31-2.184-1.662-3.1-3.845-3.1h-1.917zm0-11.651h2.045c2.492 0 4.452-.746 4.452-2.908 0-1.662-1.225-2.972-4.143-2.972-1.066 0-1.768 0-2.354.06v5.815" fill="#f15e2f"/><path d="M271.059.793L0 271.853h151.505L271.06 151.5h100.38l-8.254 7.988h-92.128v29.555h62.839l-7.722 7.722h-55.117v29.29h25.561l-7.721 7.721h-17.84v17.84l-20.236 20.236h151.771L522.148 151.5h134.198V.793H522.148L405.257 117.684V.794H271.325zm9.32 9.32h115.559v132.334h-115.56zm251.088 0h115.56v132.334h-115.56zm-9.32 149.375v29.555h134.199v-29.555zm-241.769 9.32h115.56v10.916h-115.56zm251.089 0h115.56v10.916h-115.56zm-9.32 27.957v29.29h134.199v-29.29zm-241.769 9.32h115.56v10.65h-115.56zm251.089 0h115.56v10.65h-115.56zm-9.32 27.691v29.29h134.199v-29.29zm-241.769 9.32h115.56v10.916h-115.56zm251.089 0h115.56v10.916h-115.56z"/><path d="M690.672 0c10.001 0 17.99 8.126 17.99 18.202 0 10.15-7.989 18.266-18.096 18.266-10.022 0-18.202-8.116-18.202-18.266C672.364 8.126 680.544 0 690.566 0zm-.191 3.643c-7.605 0-13.75 6.55-13.75 14.623 0 8.169 6.145 14.602 13.835 14.602 7.658.017 13.9-6.433 13.9-14.602 0-8.073-6.242-14.623-13.9-14.623zm-3.078 25.167H683.1V8.552c1.64-.234 3.408-.542 6.486-.542 3.483 0 5.581.542 6.934 1.576 1.14.916 1.81 2.29 1.81 4.367 0 2.439-1.704 4.164-3.887 4.686v.182c1.768.34 2.907 1.938 3.216 4.91.416 3.205.831 4.366 1.15 5.08h-4.473c-.436-.767-.788-2.503-1.171-5.304-.31-2.162-1.662-3.057-3.845-3.057h-1.917zm0-11.694h2.045c2.492 0 4.452-.789 4.452-2.908 0-1.704-1.225-2.982-4.143-2.982-1.066 0-1.768 0-2.354.106v5.784" fill="#292526"/></svg>