<svg xmlns="http://www.w3.org/2000/svg" height="200" width="200" viewBox="-149.8506 -86.6425 1298.7052 519.855"><path d="M953.654 32.477l-875.65 112.57-15.62 160.54 868.34-105.26z"/><path fill="#fab813" d="M103.224 261.047c-1.13 10.898 10.056 19.872 24.852 18.092h.049l73.787-9.07 5.1-34.187-50.162 6.159c-6.64.818-12.607-1.251-11.428-9.84l4.403-30.987c1.299-9.84 9.623-12.462 18.332-13.521l46.48-5.702 4.885-34.283-81.702 10.056c-11.404 1.396-20.21 8.661-22.88 19.367zm167.95-119.72l-39.552 4.86-17.274 122.26 39.576-4.836zm-5.1 120.77l39.24-4.81 8.685-60.796 35.294 55.406 35.15-4.33 17.273-122.26-39.239 4.811-8.276 58.366-33.826-53.193-37.05 4.547zm180.34-97.14l1.732-12.39 62.071-7.627 4.812-33.536-100.95 12.39-17.274 122.26 100.9-12.366 4.667-33.537-62.022 7.626 1.973-13.304 57.812-7.097 4.09-29.496zm417-37.627l43.979-64.116-45.831 5.63-20.498 31.709-17.033-27.09-42.8 5.244 34.692 52.736-39.6 57.764-29.64-106.07-39.239 4.812-63.009 120.03 16.143-114.45-43.473 5.317-31.396 46.096-19.319-39.865-39.047 4.812-17.25 122.29 38.71-4.764 8.517-60.603 21.075 40.153.673-.096 33.37-46.842-8.517 60.603 36.184-4.427 3.2-.409 39.912-4.884 8.373-17.178 41.453-5.076 3.945 15.638 31.661-3.873 10.465-1.3 35.366-4.33 24.058-36.954 18.55 31.733 42.8-5.269zM999.004 0L967.03 227.82 0 346.57 31.974 119zm-278.36 132.48l6.712 28.389-21.628 2.646z"/></svg>