<svg xmlns="http://www.w3.org/2000/svg" height="200" width="200" viewBox="-44.36145 -58.74375 384.4659 352.4625"><defs><clipPath id="a"><path d="M46 47h42.831v34.03H46z"/></clipPath></defs><g clip-path="url(#a)" transform="matrix(6.90497 0 0 -6.90497 -317.629 559.509)"><path d="M46.091 56.735v-8.708c0-.532.432-.963.963-.963h40.723c.531 0 .963.43.963.963v8.708z"/><path d="M88.687 48.103a.96.96 0 00-.96-.96H47.105c-.53 0-.961.43-.961.96v8.756h42.543zM46 56.977v-8.873c0-.61.495-1.105 1.104-1.105h40.622c.608 0 1.103.495 1.103 1.104v8.874z" fill="#010103"/><path d="M51.224 52.846c0 .445.234.69.668.69h1.475v.44h-1.475c-.684 0-1.13-.413-1.13-1.13v-1.511c0-.711.446-1.13 1.13-1.13h1.475v.446h-1.475c-.434 0-.668.244-.668.684v.544h2.126v.429h-2.126zm5.084-.956c0 .695-.391 1.184-1.076 1.184a1.03 1.03 0 01-.815-.375v.304h-.445v-2.798h.461v1.712c0 .418.31.733.734.733.445 0 .685-.315.685-.744v-1.701h.456zm1.684-1.256c-.342-.022-.646.103-.646.596v1.333h.636v.44h-.636v.534h-.457V51.23c0-.71.452-1.095 1.103-1.02zm2.581.44c-.152-.325-.434-.515-.831-.515-.462 0-.907.342-.967.923h2.352c.005.994-.69 1.592-1.412 1.592-.777 0-1.408-.663-1.408-1.472 0-.821.631-1.462 1.435-1.462.647 0 1.125.337 1.32.935zm-1.771.82c.119.479.527.762.913.762.407 0 .788-.305.902-.761zm5.653-1.26c-.342-.022-.646.103-.646.596v1.333h.635v.44h-.635v.534h-.457V51.23c0-.71.451-1.095 1.103-1.02zm4.143 3.342h-.462v-.5h.462zm0-.973h-.462v-2.798h.462zm3.06-1.113c0 .695-.391 1.184-1.075 1.184a1.03 1.03 0 01-.815-.375v.304h-.446v-2.798h.462v1.712c0 .418.31.733.734.733.445 0 .684-.315.684-.744v-1.701h.456zm4.601.049c0 .695-.392 1.135-1.038 1.135a.981.981 0 01-.875-.478c-.173.299-.467.478-.864.478a.908.908 0 01-.744-.375v.304h-.446v-2.798h.463v1.712c0 .418.282.733.662.733.413 0 .63-.266.63-.7v-1.745h.457v1.712c0 .418.277.733.657.733.429 0 .636-.266.636-.7v-1.745h.462zm2.761-.864c-.153-.326-.435-.516-.832-.516-.461 0-.907.342-.967.923h2.353c.005.994-.69 1.592-1.413 1.592-.777 0-1.407-.663-1.407-1.472 0-.821.63-1.462 1.434-1.462.647 0 1.125.337 1.321.935zm-1.771.82c.119.478.526.76.912.76.407 0 .788-.304.902-.76zm5.152-.005c0 .695-.391 1.184-1.076 1.184-.337 0-.624-.141-.815-.375v.304h-.445v-2.798h.462v1.712c0 .418.309.733.733.733.446 0 .685-.315.685-.744v-1.701h.456zm1.684-1.256c-.342-.022-.646.103-.646.596v1.333h.636v.44h-.636v.534h-.456V51.23c0-.71.451-1.095 1.102-1.02zm-17.09.647c-.011-.505-.462-.711-.94-.711-.358 0-.651.13-.651.434 0 .234.135.446.744.484.331.02.663.059.847.222zm.452-1.075l.001 2c0 .522-.381.87-1.131.87-.718 0-1.18-.364-1.213-.924h.479c.049.408.435.5.728.5.473 0 .685-.168.685-.391s-.223-.348-.907-.381c-.724-.038-1.142-.3-1.142-.875 0-.604.516-.865 1.093-.865.434 0 .756.14.957.385v-.32zm-5.83 2.797h.417v-.267c.237.214.554.32.901.279v-.423c-.531.048-.869-.21-.869-.741v-1.646h-.451z" fill="#fff" fill-rule="evenodd"/><path d="M87.727 81.03H47.104A1.106 1.106 0 0146 79.925v-23.28h42.83v23.28c0 .61-.494 1.105-1.103 1.105" fill="#d51d29"/><path d="M53.934 74.896h-2.776V63.97c0-.72.587-1.303 1.306-1.303h1.471v12.036zm6.531-7.422v2.642l7.084-.002c.718 0 1.304-.582 1.304-1.3v-3.14c0-1.616-1.29-2.953-2.933-2.954l-4.534-.003c-3.362 0-6.08 2.712-6.08 6.064 0 3.35 2.735 6.065 6.084 6.065h7.022V72.06H61.39c-1.81 0-3.296-1.468-3.296-3.279a3.278 3.278 0 013.292-3.275h4.684v1.968zm21.905 7.413h-1.489l.001-9.415a.173.173 0 00-.022-.077.192.192 0 00-.166-.095c-.059 0-.11.027-.17.104l-4.669 8.186a2.96 2.96 0 01-2.539 1.442h-.05a2.95 2.95 0 01-2.95-2.95V63.97c0-.72.585-1.303 1.305-1.303h1.477v9.415c0 .031.011.061.028.086a.185.185 0 00.165.097.176.176 0 00.164-.093l4.698-8.239c.518-.869 1.45-1.4 2.517-1.4h.05a2.952 2.952 0 012.952 2.95v8.102a1.3 1.3 0 01-1.302 1.302" fill="#fff" fill-rule="evenodd"/></g></svg>